<svg width="43" height="63" viewBox="0 0 43 63" fill="none" xmlns="http://www.w3.org/2000/svg">
<g clip-path="url(#clip0_94_299)">
<path d="M10.9877 62.3084C16.8739 62.3084 21.6512 57.7058 21.6512 52.0348V41.7612H10.9877C5.10146 41.7612 0.324219 46.3638 0.324219 52.0348C0.324219 57.7058 5.10146 62.3084 10.9877 62.3084Z" fill="#0ACF83"/>
<path d="M0.324219 31.4874C0.324219 25.8164 5.10146 21.2139 10.9877 21.2139H21.6512V41.761H10.9877C5.10146 41.761 0.324219 37.1585 0.324219 31.4874Z" fill="#A259FF"/>
<path d="M0.323242 10.9406C0.323242 5.26956 5.10048 0.666992 10.9867 0.666992H21.6502V21.2141H10.9867C5.10048 21.2141 0.323242 16.6116 0.323242 10.9406Z" fill="#F24E1E"/>
<path d="M21.6523 0.666992H32.3158C38.2021 0.666992 42.9793 5.26956 42.9793 10.9406C42.9793 16.6116 38.2021 21.2141 32.3158 21.2141H21.6523V0.666992Z" fill="#FF7262"/>
<path d="M42.9793 31.4874C42.9793 37.1585 38.2021 41.761 32.3158 41.761C26.4296 41.761 21.6523 37.1585 21.6523 31.4874C21.6523 25.8164 26.4296 21.2139 32.3158 21.2139C38.2021 21.2139 42.9793 25.8164 42.9793 31.4874Z" fill="#1ABCFE"/>
</g>
<defs>
<clipPath id="clip0_94_299">
<rect width="42.6625" height="61.6415" fill="white" transform="translate(0.321289 0.666992)"/>
</clipPath>
</defs>
</svg>
