<svg width="62" height="62" viewBox="0 0 62 62" fill="none" xmlns="http://www.w3.org/2000/svg">
<path fill-rule="evenodd" clip-rule="evenodd" d="M31.4844 0.467285C14.6331 0.467285 0.984375 14.461 0.984375 31.7381C0.984375 45.5754 9.715 57.2628 21.8388 61.4062C23.3638 61.6798 23.9356 60.7417 23.9356 59.9208C23.9356 59.1782 23.8975 56.7156 23.8975 54.0967C16.2344 55.5429 14.2519 52.1813 13.6419 50.4223C13.2988 49.5233 11.8119 46.748 10.5156 46.0053C9.44812 45.419 7.92312 43.9727 10.4775 43.9337C12.8794 43.8946 14.595 46.2008 15.1669 47.1389C17.9119 51.8686 22.2962 50.5396 24.05 49.7188C24.3169 47.6861 25.1175 46.3181 25.9944 45.5363C19.2081 44.7545 12.1169 42.0574 12.1169 30.0963C12.1169 26.6956 13.2988 23.8813 15.2431 21.6923C14.9381 20.9106 13.8706 17.7053 15.5481 13.4056C15.5481 13.4056 18.1025 12.5847 23.9356 16.6108C26.3756 15.9072 28.9681 15.5554 31.5606 15.5554C34.1531 15.5554 36.7456 15.9072 39.1856 16.6108C45.0187 12.5456 47.5731 13.4056 47.5731 13.4056C49.2506 17.7053 48.1831 20.9106 47.8781 21.6923C49.8225 23.8813 51.0044 26.6566 51.0044 30.0963C51.0044 42.0965 43.875 44.7545 37.0888 45.5363C38.1944 46.5135 39.1475 48.3897 39.1475 51.3214C39.1475 55.5038 39.1094 58.8655 39.1094 59.9208C39.1094 60.7417 39.6813 61.7189 41.2062 61.4062C47.261 59.3103 52.5222 55.3206 56.2495 49.9985C59.9768 44.6765 61.9826 38.29 61.9844 31.7381C61.9844 14.461 48.3356 0.467285 31.4844 0.467285Z" fill="black"/>
</svg>
