<svg width="63" height="63" viewBox="0 0 63 63" fill="none" xmlns="http://www.w3.org/2000/svg">
<path d="M0.84082 0.666992H62.2332V62.3085H0.84082V0.666992Z" fill="#F7DF1E"/>
<path d="M16.9825 52.1791L21.6807 49.3243C22.5871 50.9378 23.4116 52.303 25.3893 52.303C27.285 52.303 28.4802 51.5584 28.4802 48.6623V28.9663H34.2496V48.7442C34.2496 54.7439 30.7469 57.4749 25.6366 57.4749C21.0214 57.4749 18.3423 55.0748 16.9824 52.1786" fill="black"/>
<path d="M37.3838 51.5584L42.0814 48.8275C43.318 50.8552 44.9252 52.3446 47.7685 52.3446C50.159 52.3446 51.6834 51.1446 51.6834 49.4895C51.6834 47.5034 50.1175 46.7999 47.48 45.6417L46.0381 45.0206C41.8756 43.2417 39.1144 41.0073 39.1144 36.2902C39.1144 31.9456 42.4111 28.6353 47.5626 28.6353C51.2304 28.6353 53.8678 29.9181 55.7633 33.2697L51.2713 36.166C50.2822 34.3869 49.2111 33.6836 47.5627 33.6836C45.8731 33.6836 44.8015 34.7594 44.8015 36.166C44.8015 37.9038 45.8731 38.6074 48.3454 39.6833L49.7877 40.3039C54.6917 42.4143 57.4529 44.5657 57.4529 49.4067C57.4529 54.6206 53.3732 57.4753 47.8923 57.4753C42.535 57.4753 39.0732 54.9101 37.3839 51.5584" fill="black"/>
</svg>
