<svg width="37" height="62" viewBox="0 0 37 62" fill="none" xmlns="http://www.w3.org/2000/svg">
<path d="M35.9703 25.0372C31.767 10.8625 22.995 7.08801 20.7691 4.41987C19.5593 2.96845 18.3257 0.762695 18.3257 0.762695C18.2051 2.01993 17.9912 2.81619 16.5877 3.77169C13.777 5.68688 1.83238 13.1269 0.829077 29.2336C-0.106609 44.2506 15.2664 53.5123 17.3096 54.4692C18.8703 55.0559 20.7819 54.4804 21.6956 53.9425C29.1044 50.0535 39.2397 39.684 35.9612 25.0372" fill="#10AA50"/>
<path d="M18.9631 46.4707C18.5775 50.1893 18.2997 52.3532 17.3184 54.4737C17.3184 54.4737 17.9653 58.0121 18.4149 61.7615H20.0176C20.4002 59.1208 20.9842 56.4994 21.7665 53.9107C19.6905 53.1327 19.0417 49.7325 18.9631 46.4707Z" fill="#B8C4C2"/>
<path d="M21.7637 53.9128C19.6657 53.1725 19.059 49.7039 18.9658 46.47C19.4827 41.1382 19.6321 35.7894 19.4135 30.4457C19.3039 27.642 19.4684 4.4738 18.5107 1.08203C18.8982 1.74558 19.8339 3.30456 20.7695 4.41792C23.0046 7.08747 31.7693 10.862 35.9689 25.0381C39.242 39.6473 29.167 49.9986 21.7637 53.9128Z" fill="#12924F"/>
</svg>
