<svg width="62" height="62" viewBox="0 0 62 62" fill="none" xmlns="http://www.w3.org/2000/svg">
<path d="M56.9134 47.9242C53.5515 47.8399 50.9459 48.1782 48.7606 49.1078C48.1303 49.3612 47.1216 49.3615 47.0375 50.1643C47.3739 50.5027 47.4158 51.052 47.71 51.5168C48.2146 52.3618 49.0968 53.5033 49.8953 54.0951C50.7777 54.7712 51.6604 55.4473 52.5847 56.0391C54.2237 57.0535 56.0729 57.645 57.6697 58.6595C58.5946 59.2507 59.5186 60.0119 60.4432 60.6459C60.9056 60.9837 61.1996 61.5333 61.788 61.7446V61.6179C61.4938 61.2374 61.4097 60.688 61.1158 60.2654C60.6958 59.8428 60.2753 59.4623 59.855 59.0397C58.6362 57.3915 57.1235 55.9545 55.4845 54.7712C54.1399 53.8413 51.198 52.5734 50.6517 51.0096C50.6517 51.0096 50.6095 50.9675 50.5676 50.9253C51.4922 50.8407 52.5847 50.5027 53.4674 50.2489C54.8963 49.8684 56.1989 49.953 57.6697 49.5728C58.342 49.4037 59.0146 49.1923 59.6868 48.981V48.6008C58.9307 47.8399 58.3842 46.8257 57.5856 46.1072C55.4425 44.2472 53.089 42.4302 50.6517 40.9088C49.3488 40.0635 47.6679 39.5139 46.2812 38.7956C45.7771 38.5416 44.9363 38.4151 44.6424 37.9925C43.8857 37.0627 43.4655 35.8372 42.9192 34.7382C41.701 32.4134 40.5238 29.8357 39.4732 27.3845C38.7171 25.7361 38.2547 24.0877 37.3301 22.5664C33.0018 15.3816 28.295 11.0285 21.0669 6.75971C19.512 5.87229 17.6631 5.49181 15.6879 5.02702C14.6376 4.9846 13.5867 4.90028 12.5361 4.85786C11.8638 4.56196 11.1913 3.75912 10.6029 3.37864C8.20798 1.85699 2.03016 -1.43924 0.265113 2.91385C-0.869583 5.66098 1.94606 8.36567 2.91255 9.76057C3.62727 10.7326 4.55158 11.8313 5.05592 12.9303C5.35014 13.6483 5.43397 14.4096 5.7282 15.1702C6.40073 17.0294 7.03083 19.1007 7.91348 20.8337C8.37591 21.7211 8.87998 22.6509 9.46842 23.4538C9.80455 23.9186 10.3927 24.1302 10.519 24.8908C9.93084 25.7361 9.88865 27.004 9.55225 28.0606C8.0395 32.8363 8.62794 38.7532 10.771 42.261C11.4433 43.3173 13.0404 45.6424 15.1836 44.7547C17.0746 43.994 16.6544 41.5849 17.2006 39.4717C17.3269 38.9642 17.2428 38.6265 17.4949 38.2884C17.4951 38.3306 17.4949 38.373 17.4949 38.373C18.0833 39.5563 18.6715 40.6975 19.2177 41.8808C20.5206 43.9515 22.7898 46.1071 24.6808 47.5442C25.6898 48.3046 26.4881 49.615 27.7488 50.08V49.953H27.6647C27.4124 49.5725 27.0343 49.4036 26.6982 49.1077C25.9418 48.3471 25.101 47.4172 24.5129 46.5719C22.7481 44.205 21.1929 41.5849 19.8062 38.8799C19.1339 37.5699 18.5455 36.1328 17.9992 34.8228C17.7469 34.3153 17.7469 33.5549 17.3267 33.3014C16.6963 34.231 15.772 35.0341 15.3096 36.1752C14.5115 37.9925 14.4272 40.2324 14.133 42.5569C13.965 42.5993 14.0489 42.5569 13.9648 42.6415C12.6202 42.3032 12.1578 40.9088 11.6534 39.7252C10.3927 36.7246 10.1826 31.9065 11.2754 28.4411C11.5696 27.5534 12.8303 24.7641 12.326 23.9188C12.0739 23.1157 11.2332 22.6509 10.771 22.017C10.2248 21.2139 9.63635 20.1997 9.25829 19.312C8.24962 16.9454 7.74528 14.325 6.65277 11.9581C6.14843 10.8591 5.26604 9.71816 4.55158 8.70399C3.75329 7.56283 2.87063 6.75971 2.24027 5.40723C2.03041 4.94243 1.73593 4.18175 2.07206 3.67453C2.15616 3.33648 2.3241 3.20974 2.6605 3.12516C3.20676 2.6601 4.76169 3.25189 5.30794 3.50537C6.86287 4.13905 8.1655 4.73112 9.4684 5.61854C10.0566 6.04118 10.6869 6.84429 11.4433 7.05561H12.326C13.6708 7.35124 15.1835 7.14018 16.4442 7.5204C18.6717 8.23866 20.6885 9.29552 22.4958 10.4367C28.0011 13.9445 32.5393 18.9318 35.6073 24.8908C36.1116 25.8626 36.3215 26.7505 36.7839 27.7647C37.6665 29.8357 38.759 31.9489 39.6414 33.9775C40.5238 35.9637 41.3643 37.9925 42.625 39.6409C43.2556 40.5281 45.7768 40.9931 46.9115 41.4582C47.752 41.8384 49.0549 42.1767 49.8112 42.6415C51.2399 43.5287 52.6688 44.5434 54.0136 45.5154C54.6861 46.0223 56.7871 47.0792 56.9134 47.9242L56.9134 47.9242Z" fill="#00546B"/>
</svg>
