<svg width="60" height="62" viewBox="0 0 60 62" fill="none" xmlns="http://www.w3.org/2000/svg">
<path d="M30 61.7446C29.0683 61.7446 28.1988 61.5205 27.3913 61.1282L19.1304 56.7011C17.8882 56.0847 18.5093 55.8605 18.882 55.7484C20.559 55.2441 20.8696 55.132 22.6087 54.2354C22.795 54.1233 23.0435 54.1794 23.2298 54.2914L29.5652 57.7098C29.8137 57.8219 30.1242 57.8219 30.3106 57.7098L55.0932 44.7648C55.3416 44.6527 55.4658 44.4286 55.4658 44.1484V18.3143C55.4658 18.0341 55.3416 17.81 55.0932 17.6979L30.3106 4.80893C30.0621 4.69685 29.7516 4.69685 29.5652 4.80893L4.78261 17.6979C4.53416 17.81 4.40994 18.0902 4.40994 18.3143V44.1484C4.40994 44.3725 4.53416 44.6527 4.78261 44.7648L11.5528 48.2952C15.2174 49.9764 17.5155 48.0151 17.5155 46.0537V20.5559C17.5155 20.2197 17.8261 19.8834 18.2609 19.8834H21.4286C21.8012 19.8834 22.1739 20.1636 22.1739 20.5559V46.0537C22.1739 50.4808 19.5031 53.0586 14.8447 53.0586C13.4161 53.0586 12.2981 53.0586 9.13043 51.6576L2.6087 48.2952C0.993789 47.4547 0 45.8856 0 44.2044V18.3704C0 16.6892 0.993789 15.1201 2.6087 14.2795L27.3913 1.3345C28.9441 0.549957 31.0559 0.549957 32.6087 1.3345L57.3913 14.2795C59.0062 15.1201 60 16.6892 60 18.3704V44.2044C60 45.8856 59.0062 47.4547 57.3913 48.2952L32.6087 61.2403C31.8012 61.5765 30.8696 61.7446 30 61.7446ZM37.6398 43.9802C26.7702 43.9802 24.5342 39.4971 24.5342 35.6865C24.5342 35.3502 24.8447 35.014 25.2795 35.014H28.5093C28.882 35.014 29.1925 35.2381 29.1925 35.5744C29.6894 38.5444 31.118 40.0015 37.7019 40.0015C42.9193 40.0015 45.1553 38.9367 45.1553 36.415C45.1553 34.958 44.5342 33.8932 36.3975 33.1647C29.6273 32.5483 25.4037 31.2033 25.4037 26.3279C25.4037 21.7888 29.6273 19.0989 36.7081 19.0989C44.6584 19.0989 48.5714 21.5646 49.0683 26.9444C49.0683 27.1125 49.0062 27.2806 48.882 27.4487C48.7578 27.5608 48.5714 27.6729 48.3851 27.6729H45.1553C44.8447 27.6729 44.5342 27.4487 44.472 27.1685C43.7267 24.0864 41.8012 23.0777 36.7081 23.0777C30.9938 23.0777 30.3106 24.8709 30.3106 26.2159C30.3106 27.841 31.118 28.3453 38.8199 29.242C46.4596 30.1386 50.0621 31.4275 50.0621 36.2468C50 41.1783 45.528 43.9802 37.6398 43.9802Z" fill="#539E43"/>
</svg>
