<svg width="63" height="62" viewBox="0 0 63 62" fill="none" xmlns="http://www.w3.org/2000/svg">
<path d="M54.3569 35.4944C52.1892 35.5105 50.3121 36.1938 48.7377 37.2113C48.1564 35.7012 47.5751 34.3817 47.4783 33.3964C47.3693 32.2519 47.2361 31.5524 47.3693 30.1855C47.5024 28.8183 48.108 26.8791 48.108 26.7201C48.0957 26.5771 47.9746 25.8777 46.7274 25.8618C45.4801 25.8459 44.4022 26.1797 44.2811 26.6089C44.16 27.038 43.9178 28.0236 43.7603 29.0409C43.5423 30.535 41.2656 35.8282 39.9698 38.6099C39.5459 37.529 39.1826 36.5753 39.1098 35.8122C39.0009 34.6679 38.8676 33.9683 39.0009 32.6015C39.1341 31.2343 39.7397 29.2952 39.7397 29.1362C39.7275 28.9932 39.6064 28.2938 38.3592 28.2779C37.1117 28.262 36.034 28.5958 35.9129 29.025C35.7918 29.4542 35.6586 30.4715 35.3921 31.457C35.1377 32.4425 32.1101 41.2804 31.3229 43.5852C30.9233 44.7615 30.5722 45.6993 30.3177 46.3351C30.0634 46.971 30.3056 46.3828 30.2814 46.4464C30.0634 46.9869 29.9423 47.2889 29.9423 47.2889V47.3049C29.7728 47.7023 29.5911 48.0836 29.5062 48.0836C29.4457 48.0836 29.3246 47.0186 29.5304 45.5564C29.9785 42.4884 31.0685 37.7041 31.0565 37.5292C31.0565 37.4497 31.2622 36.6071 30.3539 36.1781C29.4699 35.7489 29.1551 36.4642 29.0824 36.4642C29.0097 36.4642 28.9491 36.7185 28.9491 36.7185C28.9491 36.7185 29.9301 31.3301 27.072 31.3301C25.2797 31.3301 22.8091 33.8893 21.586 36.2259C20.8109 36.7823 19.1639 37.9584 17.42 39.2143C16.7539 39.6911 16.0636 40.1998 15.4097 40.6608L15.2766 40.4697C11.813 35.6216 5.40658 32.1882 5.67301 25.671C5.76989 23.3026 6.39964 17.0557 17.9773 9.48945C27.4598 3.29022 35.053 4.99104 36.373 8.77416C38.2501 14.1786 32.316 24.2245 22.4582 25.671C18.704 26.2274 16.7298 24.3199 16.2334 23.6046C15.7127 22.8575 15.64 22.8257 15.4462 22.9688C15.1314 23.1913 15.3251 23.8589 15.4462 24.2563C15.7369 25.2577 16.9479 27.038 19.0067 27.9282C20.8111 28.7071 25.2194 29.1362 30.548 26.434C36.5184 23.398 41.1809 14.9734 39.8124 7.9317C38.4197 0.762844 29.3611 -1.58968 20.7991 2.40008C15.7004 4.7844 10.1781 8.50393 6.20587 13.3838C1.4828 19.1698 0.731953 24.2245 1.04682 26.3227C2.14899 33.8095 10.0085 38.6894 13.1573 42.2977C12.9998 42.4088 12.8545 42.5201 12.7213 42.6156C11.1469 43.6327 5.15226 47.7498 3.65057 52.105C1.95511 57.0326 3.917 60.5775 5.22492 61.0543C9.26981 62.5326 13.4116 59.8781 15.652 55.5068C17.8802 51.1356 17.6139 45.4609 16.5845 42.8699L16.5481 42.7746L17.7833 41.8208C18.5827 41.2009 19.3699 40.6287 20.0601 40.1357C19.6727 41.5186 19.394 43.1559 19.2488 45.5402C19.0793 48.338 19.9512 51.962 21.1017 53.3926C21.6103 54.0123 22.2159 54.0284 22.5913 54.0284C23.9234 54.0284 24.529 52.5817 25.195 50.8493C26.0185 48.7352 26.7452 46.2873 26.7452 46.2873C26.7452 46.2873 25.8369 52.9157 28.3195 52.9157C29.2278 52.9157 30.1361 51.3738 30.5478 50.5791V50.595C30.5478 50.595 30.5721 50.5473 30.6205 50.436C30.6713 50.3374 30.7198 50.2367 30.7658 50.1342V50.1024C31.1291 49.2758 31.9405 47.3842 33.1516 44.2528C34.7137 40.2154 36.2155 35.1606 36.2155 35.1606C36.2155 35.1606 36.3608 36.4005 36.8089 38.4351C37.0752 39.6433 37.6565 40.9625 38.1046 42.25C37.7413 42.9176 37.5233 43.2993 37.5233 43.2993L37.5354 43.3152C37.2449 43.8238 36.9178 44.3644 36.5788 44.9047C35.3436 46.8439 33.8661 49.0536 33.6723 49.6894C33.4422 50.4363 33.4907 50.9927 33.9388 51.4379C34.2657 51.7558 34.847 51.8192 35.4647 51.7558C36.5788 51.6603 37.3539 51.2948 37.7414 51.0721C38.347 50.786 39.0373 50.3568 39.7033 49.721C40.9144 48.5449 41.6531 46.8759 41.5804 44.6505C41.5441 43.4266 41.2413 42.2185 40.8659 41.0741C40.9749 40.8674 41.084 40.6606 41.1929 40.4382C43.1064 36.7662 44.5838 32.7289 44.5838 32.7289C44.5838 32.7289 44.7292 33.9688 45.1772 36.0034C45.4072 37.0366 45.8675 38.1653 46.2793 39.278C44.4869 41.2014 43.3607 43.4267 42.9731 44.8891C42.2586 47.5914 42.8157 48.8153 43.8693 49.1014C44.3415 49.2286 45.0198 48.9425 45.5283 48.6564C46.1581 48.3861 46.921 47.925 47.6235 47.2417C48.8346 46.0654 49.9972 44.4282 49.9366 42.2187C49.9003 41.2014 49.6944 40.2 49.4159 39.2462C50.9418 38.4197 52.9157 37.9428 55.4227 38.3402C60.8118 39.1668 61.8775 43.5857 61.6718 45.4296C61.4659 47.2736 60.3396 48.2908 59.9641 48.6087C59.5887 48.9107 59.4675 49.0221 59.5039 49.2445C59.5523 49.5784 59.7219 49.5624 60.0489 49.499C60.4969 49.4034 62.8827 47.9889 62.9796 44.5874C63.1249 40.2155 59.9641 35.4469 54.3569 35.4944ZM12.7939 53.8855C11.0137 56.4446 8.50685 57.4143 7.44113 56.5877C6.29064 55.7135 6.73861 51.9462 8.93072 49.2281C10.2629 47.575 11.9947 46.049 13.133 45.1112C13.3874 44.9045 13.7749 44.6027 14.2351 44.2369C14.3077 44.1735 14.3562 44.1416 14.3562 44.1416C14.441 44.078 14.5378 43.9985 14.6347 43.919C15.4461 47.7975 14.6711 51.1991 12.7939 53.8855ZM25.8127 42.2659C25.195 44.2528 23.8871 49.3553 23.0999 49.0692C22.4216 48.8307 22.01 44.9681 22.9666 41.1532C23.451 39.2297 24.4804 36.9409 25.0859 36.0506C26.067 34.62 27.1326 34.1432 27.3991 34.7313C27.714 35.4944 26.2002 41.0261 25.8127 42.2659ZM36.5546 49.0056C36.2882 49.1806 36.046 49.3076 35.937 49.2124C35.8522 49.1488 36.0458 48.9104 36.0458 48.9104C36.0458 48.9104 37.3901 47.0188 37.923 46.1446C38.2257 45.6361 38.589 45.0479 38.9766 44.3802V44.5709C38.9767 46.8597 37.3055 48.3857 36.5546 49.0056ZM44.838 46.5259C44.6443 46.3351 44.6686 45.747 45.3224 43.9031C45.5769 43.1719 46.1581 41.948 47.1632 40.7876C47.2843 41.2645 47.3571 41.7253 47.3449 42.1546C47.3329 45.0158 45.7828 46.0808 44.838 46.5259Z" fill="#CF649A"/>
</svg>
