<svg width="61" height="62" viewBox="0 0 61 62" fill="none" xmlns="http://www.w3.org/2000/svg">
<path d="M0.604492 31.2786V61.7778H30.6045H60.6045V31.2786V0.779297H30.6045H0.604492V31.2786Z" fill="#007ACC"/>
<path d="M13.8732 31.4813L13.8542 33.9793H17.759H21.6637L21.6637 45.2592V56.5391H24.4256H27.1875V45.2592L27.1875 33.9793H31.0923H34.9971V31.5297C34.9971 30.1742 34.9685 29.0413 34.9304 29.0123C34.9018 28.9736 30.1494 28.9542 24.3875 28.9639L13.9018 28.9929L13.8732 31.4813Z" fill="white"/>
<path d="M49.0187 28.9215C50.5425 29.3088 51.7044 29.9962 52.7711 31.1194C53.3235 31.7197 54.1425 32.8138 54.2092 33.0752C54.2282 33.1527 51.6187 34.9342 50.0377 35.9315C49.9806 35.9702 49.752 35.7185 49.4949 35.3312C48.7235 34.1887 47.9139 33.6949 46.6758 33.6077C44.8568 33.4819 43.6854 34.4501 43.6949 36.067C43.6949 36.5415 43.7616 36.8223 43.952 37.2095C44.352 38.0519 45.0949 38.5554 47.4282 39.5817C51.7235 41.4601 53.5616 42.6994 54.7044 44.4616C55.9806 46.4271 56.2663 49.5642 55.3996 51.8976C54.4473 54.4344 52.0854 56.1578 48.7616 56.7291C47.733 56.9131 45.2949 56.884 44.1901 56.6807C41.7806 56.245 39.4949 55.0347 38.0854 53.4468C37.533 52.8271 36.4568 51.2102 36.5235 51.094C36.552 51.0553 36.7997 50.9003 37.0758 50.7357C37.3425 50.5808 38.352 49.9902 39.3044 49.4286L41.0282 48.412L41.3901 48.9542C41.8949 49.7385 42.9997 50.8132 43.6663 51.1714C45.5806 52.1978 48.2092 52.0525 49.5044 50.8713C50.0568 50.3581 50.2854 49.8256 50.2854 49.0413C50.2854 48.3345 50.1997 48.0247 49.8377 47.4922C49.3711 46.8144 48.4187 46.2431 45.7139 45.0522C42.6187 43.6967 41.2854 42.8543 40.0663 41.5182C39.3616 40.7436 38.6949 39.5042 38.4187 38.4682C38.1901 37.6065 38.133 35.4474 38.3139 34.576C38.952 31.5357 41.2092 29.4153 44.4663 28.7859C45.5235 28.5826 47.9806 28.6601 49.0187 28.9215Z" fill="white"/>
</svg>
